<svg width="3300" height="3300" xmlns="http://www.w3.org/2000/svg" xmlns:xlink="http://www.w3.org/1999/xlink" xml:space="preserve" overflow="hidden"><g><path d="M1320.01 990C1137.75 990 990 1137.75 990 1320.01L990 2310 990 2310 990 2640 990 2640 991.704 2673.73C1008.6 2840.14 1149.14 2970 1320.01 2970L2639.99 2970C2822.25 2970 2970 2822.25 2970 2639.99L2970 1320.01C2970 1137.75 2822.25 990 2639.99 990L2310 990ZM660.006 330C477.749 330 330 477.749 330 660.006L330 1979.99C330 2150.86 459.858 2291.4 626.265 2308.3L660 2310 660 1100.01C660 856.999 856.999 660 1100.01 660L2310 660 2308.3 626.265C2291.4 459.858 2150.86 330 1979.99 330ZM440.009 0 2199.99 0C2443 0 2640 196.999 2640 440.009L2640 660 2859.99 660C3103 660 3300 856.999 3300 1100.01L3300 2859.99C3300 3103 3103 3300 2859.99 3300L1100.01 3300C856.999 3300 660 3103 660 2859.99L660 2640 440.009 2640C196.999 2640 0 2443 0 2199.99L0 440.009C0 196.999 196.999 0 440.009 0Z" fill-rule="evenodd"/></g></svg>