<svg width="3300" height="3300" xmlns="http://www.w3.org/2000/svg" xml:space="preserve" overflow="hidden"><g><path d="M990.186 2143.97 990.86 2144.87 990.231 2144.87ZM615.5 1487 615.5 1814.81 660.154 1814.81 660.154 1814.81 626.406 1816.51C459.962 1833.42 330.077 1973.98 330.077 2144.87 330.077 2327.16 477.858 2474.94 660.154 2474.94L1231 2474.94 1224.74 2487.17C1108.95 2677.72 899.418 2805 660.154 2805 295.561 2805 0 2509.45 0 2144.87 0 1803.08 259.771 1521.96 592.657 1488.15Z" fill-rule="evenodd"/><path d="M2474.93 1155C2930.6 1155 3300 1524.36 3300 1980 3300 2435.63 2930.6 2805 2474.93 2805 2218.62 2805 1989.6 2688.13 1838.27 2504.78L1816 2475 2474.93 2475 2474.93 2475 2474.93 2475C2748.33 2475 2969.97 2253.38 2969.97 1980 2969.97 1706.62 2748.33 1485 2474.93 1485L2458.49 1485.83 2458.17 1483.73C2436.19 1376.32 2393.33 1276.52 2334.02 1188.73L2320.03 1170.02 2390.57 1159.26C2418.31 1156.44 2446.45 1155 2474.93 1155Z" fill-rule="evenodd"/><path d="M842.413 2475 1647.79 2475 2457.58 2475 2384.68 2541.25C2185.03 2706.02 1929.07 2805 1649.99 2805 1370.92 2805 1114.96 2706.02 915.311 2541.25ZM1649.99 495C2267.95 495 2772.55 980.297 2803.49 1590.56L2804 1610.89 2789.85 1598.03C2704.29 1527.42 2594.59 1485 2474.99 1485L2456.37 1485.94 2456.03 1483.73C2379.1 1107.8 2046.47 825 1647.79 825 1192.16 825 822.798 1194.36 822.798 1650 822.798 1678.48 824.241 1706.62 827.058 1734.35L839.538 1816.13 674.901 1816.13 659.999 1815C614.436 1815 571.03 1824.23 531.549 1840.93L513.413 1849.67 500.963 1768.09C497.02 1729.26 495 1689.87 495 1650 495 1012.11 1012.11 495 1649.99 495Z" fill-rule="evenodd"/><rect x="660" y="2475" width="1815" height="330"/><path d="M1941.19 1124.97 2174.53 1358.32 1357.82 2175.02 1124.48 1941.68Z" fill-rule="evenodd"/><path d="M1124.48 1358.32 1357.82 1124.97 2174.53 1941.68 1941.19 2175.02Z" fill-rule="evenodd"/></g></svg>