<svg width="3301" height="3301" xmlns="http://www.w3.org/2000/svg" xml:space="preserve" overflow="hidden"><g transform="matrix(1 0 0 1 0 1)"><path d="M550.011 0 1815 0 1815 330 770.009 330C526.999 330 330 526.999 330 770.009L330 2529.99C330 2773 526.999 2970 770.009 2970L2529.99 2970C2773 2970 2970 2773 2970 2529.99L2970 1485 3300 1485 3300 2749.99C3300 3053.75 3053.75 3300 2749.99 3300L550.011 3300C246.248 3300 0 3053.75 0 2749.99L0 550.011C0 246.248 246.248 0 550.011 0Z" fill-rule="evenodd"/><path d="M2286.44 173.711 3126.49 1013.75 1833.37 2306.88 1622.59 2096.1 2913.88 804.802 2494.41 385.335 1203.12 1676.63 993.323 1466.83Z" fill-rule="evenodd"/><path d="M2706.47-0.267319C2858.48-0.267319 3010.5 57.7253 3126.49 173.711 3358.46 405.683 3358.46 781.782 3126.49 1013.75 2981.5 1158.74 2780.22 1213.1 2593.01 1176.86L2551.87 1166.81 2913.88 804.802 2912.66 803.587 2938.86 781.974C2992.9 727.929 3026.33 653.267 3026.33 570.797 3026.33 405.857 2892.62 272.147 2727.68 272.147 2645.21 272.147 2570.55 305.574 2516.5 359.62L2494.89 385.814 2494.41 385.334 2133 746.748 2123.34 707.183C2087.09 519.976 2141.46 318.693 2286.44 173.711 2402.43 57.7253 2554.45-0.267319 2706.47-0.267319Z" fill-rule="evenodd"/><path d="M2439.62 324.467 2966.93 851.784 2819.47 999.249 2292.15 471.933Z" fill-rule="evenodd"/><rect x="993" y="2011" width="839" height="296"/><rect x="993" y="1469" width="296" height="838"/></g></svg>