<svg width="3300" height="3300" xmlns="http://www.w3.org/2000/svg" xmlns:xlink="http://www.w3.org/1999/xlink" xml:space="preserve" overflow="hidden"><g><path d="M550.011 0 1650 0 1650 330 770.009 330C526.999 330 330 526.999 330 770.009L330 2529.99C330 2773 526.999 2970 770.009 2970L1650 2970 1650 3300 550.011 3300C246.248 3300 0 3053.75 0 2749.99L0 550.011C0 246.248 246.248 0 550.011 0Z" fill-rule="evenodd" transform="matrix(-1 0 0 1 3300 0)"/><path d="M825 2145 1155 2145 1155 2529.99C1155 2773 1352 2970 1595.01 2970L2475 2970 2475 3300 1375.01 3300C1071.25 3300 825 3053.75 825 2749.99ZM1375.01 0 2475 0 2475 330 1595.01 330C1352 330 1155 526.999 1155 770.009L1155 1155 825 1155 825 550.011C825 246.248 1071.25 0 1375.01 0Z" fill-rule="evenodd"/><path d="M825 1155C825 1063.87 898.873 990 990 990 1081.13 990 1155 1063.87 1155 1155 1155 1246.13 1081.13 1320 990 1320 898.873 1320 825 1246.13 825 1155Z" fill-rule="evenodd"/><path d="M825 2145C825 2053.87 898.873 1980 990 1980 1081.13 1980 1155 2053.87 1155 2145 1155 2236.13 1081.13 2310 990 2310 898.873 2310 825 2236.13 825 2145Z" fill-rule="evenodd"/><rect x="165" y="1485" width="1980" height="330"/><path d="M165 1485C256.127 1485 330 1558.87 330 1650 330 1741.13 256.127 1815 165 1815 73.873 1815 0 1741.13 0 1650 0 1558.87 73.873 1485 165 1485Z" fill-rule="evenodd"/><path d="M2145 1485C2236.13 1485 2310 1558.87 2310 1650 2310 1741.13 2236.13 1815 2145 1815 2053.87 1815 1980 1741.13 1980 1650 1980 1558.87 2053.87 1485 2145 1485Z" fill-rule="evenodd"/><path d="M2028.33 1533.33C2092.76 1468.89 2197.24 1468.89 2261.67 1533.33 2326.11 1597.76 2326.11 1702.24 2261.67 1766.67 2197.24 1831.11 2092.76 1831.11 2028.33 1766.67 1963.89 1702.24 1963.89 1597.76 2028.33 1533.33Z" fill-rule="evenodd"/><path d="M2028.33 1533.33 2261.67 1766.67 1794.98 2233.36 1561.64 2000.02Z" fill-rule="evenodd"/><path d="M1561.64 2000.02C1626.07 1935.58 1730.55 1935.58 1794.98 2000.02 1859.42 2064.45 1859.42 2168.93 1794.98 2233.36 1730.55 2297.8 1626.07 2297.8 1561.64 2233.36 1497.2 2168.93 1497.2 2064.45 1561.64 2000.02Z" fill-rule="evenodd"/><path d="M1561.64 1299.98C1497.2 1235.54 1497.2 1131.07 1561.64 1066.64 1626.07 1002.2 1730.55 1002.2 1794.98 1066.64 1859.42 1131.07 1859.42 1235.54 1794.98 1299.98 1730.55 1364.42 1626.07 1364.42 1561.64 1299.98Z" fill-rule="evenodd"/><path d="M1561.64 1299.98 1794.98 1066.64 2261.67 1533.33 2028.33 1766.67Z" fill-rule="evenodd"/><path d="M2028.33 1766.67C1963.89 1702.23 1963.89 1597.76 2028.33 1533.33 2092.76 1468.89 2197.24 1468.89 2261.67 1533.33 2326.11 1597.76 2326.11 1702.23 2261.67 1766.67 2197.24 1831.11 2092.76 1831.11 2028.33 1766.67Z" fill-rule="evenodd"/></g></svg>