<svg width="3742" height="3061" xmlns="http://www.w3.org/2000/svg" xml:space="preserve" overflow="hidden"><g transform="translate(-328 -665)"><path d="M428.778 2854.52 593.15 2840.14 650.673 3497.63 1565.51 3417.59 1566.78 3432.08 1430.01 3595.07 500.682 3676.38ZM328.113 1703.91 1377.88 1612.07 1409.9 1638.94 1421.7 1773.87 506.866 1853.91 564.389 2511.39 400.017 2525.78Z" fill-rule="evenodd"/><path d="M550.008 2347.02C731.569 2331.14 891.629 2465.44 907.514 2647 923.398 2828.57 789.091 2988.63 607.531 3004.51 550.793 3009.47 496.155 2999.77 447.361 2978.54L439.28 2974.55 428.778 2854.52 593.15 2840.14C683.931 2832.2 751.084 2752.17 743.142 2661.39 735.199 2570.6 655.169 2503.45 564.389 2511.39L400.017 2525.77 389.515 2405.74 396.781 2400.41C441.148 2371.03 493.271 2351.99 550.008 2347.02Z" fill-rule="evenodd"/><path d="M1529.69 3220.14 1656.09 3326.2 1430.51 3595.03 1304.11 3488.97Z" fill-rule="evenodd"/><path d="M1380.9 3122.62 1486.96 2996.22 1748.69 3215.84 1642.63 3342.24Z" fill-rule="evenodd"/><path d="M1489.01 2755.22 1615.41 2861.28 1389.84 3130.12 1263.44 3024.06Z" fill-rule="evenodd"/><path d="M1340.22 2657.7 1446.28 2531.3 1708.02 2750.92 1601.96 2877.32Z" fill-rule="evenodd"/><path d="M1448.34 2290.31 1574.74 2396.37 1349.16 2665.2 1222.76 2559.14Z" fill-rule="evenodd"/><path d="M1299.55 2192.79 1405.61 2066.39 1667.34 2286.01 1561.28 2412.41Z" fill-rule="evenodd"/><path d="M1407.67 1825.4 1534.06 1931.45 1308.49 2200.29 1182.09 2094.23Z" fill-rule="evenodd"/><path d="M1354.31 1614.13 1377.6 1612.1 1626.67 1821.09 1520.61 1947.49 1258.88 1727.87Z" fill-rule="evenodd"/><path d="M3804.65 2888.87 3969.02 2903.25 3897.12 3725.11 1562.25 3520.84 1741 3370.85 3747.12 3546.36ZM1855.25 1558.91 4069.69 1752.65 3997.78 2574.51 3833.41 2560.13 3890.93 1902.64 2005.24 1737.66Z" fill-rule="evenodd"/><path d="M3790.27 3053.25C3608.71 3037.36 3474.4 2877.3 3490.28 2695.74 3506.17 2514.18 3666.23 2379.87 3847.79 2395.76 3904.53 2400.72 3956.65 2419.76 4001.02 2449.14L4008.28 2454.48 3997.78 2574.51 3833.41 2560.13C3742.63 2552.19 3662.6 2619.34 3654.66 2710.12 3646.71 2800.9 3713.87 2880.93 3804.65 2888.87L3969.02 2903.25 3958.52 3023.29 3950.44 3027.28C3901.64 3048.51 3847 3058.21 3790.27 3053.25Z" fill-rule="evenodd"/><path d="M1957.98 3189.25 2064.04 3315.65 1795.21 3541.22 1689.15 3414.82Z" fill-rule="evenodd"/><path d="M1828.38 3067.37 1954.78 2961.31 2174.4 3223.04 2048 3329.1Z" fill-rule="evenodd"/><path d="M1998.65 2724.33 2104.71 2850.73 1835.88 3076.31 1729.82 2949.91Z" fill-rule="evenodd"/><path d="M1869.06 2602.45 1995.45 2496.39 2215.07 2758.13 2088.68 2864.19Z" fill-rule="evenodd"/><path d="M2039.33 2259.42 2145.39 2385.82 1876.56 2611.39 1770.5 2484.99Z" fill-rule="evenodd"/><path d="M1909.73 2137.54 2036.13 2031.48 2255.75 2293.21 2129.35 2399.27Z" fill-rule="evenodd"/><path d="M2080 1794.5 2186.06 1920.9 1917.23 2146.48 1811.17 2020.08Z" fill-rule="evenodd"/><path d="M2064.14 1577.19 2087.43 1579.22 2296.42 1828.3 2170.03 1934.36 1950.41 1672.62Z" fill-rule="evenodd"/><path d="M2599.31 2783.24 3092.42 2826.38 3078.04 2990.75 2584.93 2947.61Z" fill-rule="evenodd"/><path d="M2509.93 2858.32C2513.9 2812.88 2553.92 2779.27 2599.31 2783.24 2644.69 2787.21 2678.26 2827.26 2674.29 2872.7 2670.31 2918.14 2630.3 2951.76 2584.91 2947.79 2539.52 2943.82 2505.95 2903.76 2509.93 2858.32Z" fill-rule="evenodd"/><path d="M3004.6 2901.6C3008.58 2856.16 3048.59 2822.54 3093.98 2826.52 3139.37 2830.49 3172.94 2870.54 3168.96 2915.98 3164.99 2961.42 3124.97 2995.04 3079.58 2991.07 3034.2 2987.1 3000.63 2947.04 3004.6 2901.6Z" fill-rule="evenodd"/><path d="M2413.95 3007.15 3235.81 3079.06 3221.43 3243.43 2399.57 3171.53Z" fill-rule="evenodd"/><path d="M2324.84 3082.26C2328.82 3036.82 2368.83 3003.21 2414.22 3007.18 2459.6 3011.15 2493.18 3051.2 2489.2 3096.64 2485.22 3142.08 2445.21 3175.7 2399.82 3171.73 2354.44 3167.76 2320.86 3127.7 2324.84 3082.26Z" fill-rule="evenodd"/><path d="M3146.45 3153.96C3150.43 3108.52 3190.44 3074.91 3235.83 3078.88 3281.22 3082.85 3314.79 3122.9 3310.81 3168.34 3306.84 3213.78 3266.82 3247.4 3221.43 3243.43 3176.05 3239.46 3142.48 3199.4 3146.45 3153.96Z" fill-rule="evenodd"/><path d="M1191.92 1104.64 1381.78 1362.01 1249 1459.96 1059.14 1202.59Z" fill-rule="evenodd"/><path d="M1274.15 1355.08C1310.85 1328 1362.54 1335.77 1389.58 1372.44 1416.63 1409.1 1408.8 1460.77 1372.09 1487.85 1335.38 1514.93 1283.7 1507.16 1256.66 1470.5 1229.61 1433.83 1237.44 1382.16 1274.15 1355.08Z" fill-rule="evenodd"/><path d="M1081.32 1093.69C1118.03 1066.61 1169.71 1074.38 1196.76 1111.04 1223.8 1147.71 1215.97 1199.38 1179.26 1226.46 1142.56 1253.53 1090.87 1245.76 1063.83 1209.1 1036.78 1172.44 1044.61 1120.76 1081.32 1093.69Z" fill-rule="evenodd"/><path d="M2005.09 1121.75 1921.39 1430.43 1762.14 1387.25 1845.84 1078.57Z" fill-rule="evenodd"/><path d="M1863.27 1329.19C1907.29 1341.13 1933.31 1386.45 1921.39 1430.43 1909.47 1474.4 1864.12 1500.37 1820.09 1488.43 1776.07 1476.49 1750.04 1431.17 1761.97 1387.2 1773.89 1343.23 1819.24 1317.26 1863.27 1329.19Z" fill-rule="evenodd"/><path d="M1946.67 1022.3C1990.69 1034.24 2016.71 1079.56 2004.79 1123.54 1992.87 1167.51 1947.52 1193.48 1903.49 1181.54 1859.47 1169.6 1833.44 1124.28 1845.37 1080.31 1857.29 1036.34 1902.64 1010.37 1946.67 1022.3Z" fill-rule="evenodd"/><path d="M1552.1 734.883 1639.76 1222.06 1477.36 1251.28 1389.71 764.102Z" fill-rule="evenodd"/><path d="M1457.43 666.683C1502.33 658.606 1545.26 688.407 1553.33 733.247 1561.4 778.087 1531.54 820.985 1486.65 829.063 1441.76 837.141 1398.82 807.339 1390.76 762.499 1382.69 717.659 1412.54 674.761 1457.43 666.683Z" fill-rule="evenodd"/><path d="M1545.58 1156.6C1590.48 1148.52 1633.41 1178.32 1641.48 1223.16 1649.55 1268 1619.69 1310.9 1574.8 1318.98 1529.91 1327.06 1486.98 1297.26 1478.91 1252.42 1470.84 1207.58 1500.69 1164.68 1545.58 1156.6Z" fill-rule="evenodd"/><path d="M2552.67 2103.52C2558.49 2036.94 2617.18 1987.7 2683.76 1993.52L3165.91 2035.7C3232.48 2041.53 3281.73 2100.22 3275.91 2166.79L3233.72 2648.94C3227.9 2715.52 3169.21 2764.77 3102.64 2758.94L2620.48 2716.76C2553.91 2710.93 2504.66 2652.24 2510.49 2585.67Z" fill-rule="evenodd"/><path d="M2793.83 2565.44C2797.8 2520.05 2837.81 2486.48 2883.2 2490.45 2928.59 2494.42 2962.17 2534.43 2958.2 2579.82 2954.23 2625.21 2914.21 2658.79 2868.82 2654.82 2823.43 2650.85 2789.86 2610.83 2793.83 2565.44Z" fill="#E97132" fill-rule="evenodd"/><path d="M2810.98 2180.05 3008.23 2197.3 2939.52 2427.97 2922.65 2421.07C2912.14 2417.94 2901.17 2415.82 2889.82 2414.83 2878.47 2413.84 2867.29 2414.02 2856.4 2415.27L2838.59 2419.14Z" fill="#E97132" fill-rule="evenodd"/><path d="M2811.83 2170.36C2816.59 2115.89 2864.61 2075.6 2919.08 2080.36 2973.55 2085.13 3013.84 2133.14 3009.08 2187.61 3004.31 2242.08 2956.29 2282.37 2901.82 2277.61 2847.36 2272.84 2807.06 2224.82 2811.83 2170.36Z" fill="#E97132" fill-rule="evenodd"/></g></svg>