<svg width="3300" height="3300" xmlns="http://www.w3.org/2000/svg" xml:space="preserve" overflow="hidden"><g><path d="M1650 330C920.984 330 330 920.984 330 1650 330 2379.02 920.984 2970 1650 2970 2379.02 2970 2970 2379.02 2970 1650 2970 920.984 2379.02 330 1650 330ZM1650 0C2561.27 0 3300 738.73 3300 1650 3300 2561.27 2561.27 3300 1650 3300 738.73 3300 0 2561.27 0 1650 0 738.73 738.73 0 1650 0Z" fill-rule="evenodd"/><path d="M1299.98 1066.64 2233.36 2000.02 2000.02 2233.36 1066.64 1299.98Z" fill-rule="evenodd"/><path d="M1066.64 1066.64C1131.07 1002.2 1235.55 1002.2 1299.98 1066.64 1364.42 1131.07 1364.42 1235.55 1299.98 1299.98 1235.55 1364.42 1131.07 1364.42 1066.64 1299.98 1002.2 1235.55 1002.2 1131.07 1066.64 1066.64Z" fill-rule="evenodd"/><path d="M2000.02 2000.02C2064.45 1935.58 2168.93 1935.58 2233.36 2000.02 2297.8 2064.45 2297.8 2168.93 2233.36 2233.36 2168.93 2297.8 2064.45 2297.8 2000.02 2233.36 1935.58 2168.93 1935.58 2064.45 2000.02 2000.02Z" fill-rule="evenodd"/><path d="M1066.64 2000.02 2000.02 1066.64 2233.36 1299.98 1299.98 2233.36Z" fill-rule="evenodd"/><path d="M1066.64 2233.36C1002.2 2168.93 1002.2 2064.45 1066.64 2000.02 1131.07 1935.58 1235.55 1935.58 1299.98 2000.02 1364.42 2064.45 1364.42 2168.93 1299.98 2233.36 1235.55 2297.8 1131.07 2297.8 1066.64 2233.36Z" fill-rule="evenodd"/><path d="M2000.02 1299.98C1935.58 1235.54 1935.58 1131.07 2000.02 1066.64 2064.45 1002.2 2168.93 1002.2 2233.36 1066.64 2297.8 1131.07 2297.8 1235.54 2233.36 1299.98 2168.93 1364.42 2064.45 1364.42 2000.02 1299.98Z" fill-rule="evenodd"/></g></svg>