<svg width="3300" height="3300" xmlns="http://www.w3.org/2000/svg" xmlns:xlink="http://www.w3.org/1999/xlink" xml:space="preserve" overflow="hidden"><defs><clipPath id="clip0"><rect x="0" y="0" width="3300" height="3300"/></clipPath></defs><g clip-path="url(#clip0)"><path d="M825 1650C851.392 1650 877.784 1651.26 904.078 1653.78L940.878 1659.09 475.107 2124.86 475.106 2124.86C281.797 2318.17 281.796 2631.58 475.106 2824.89 668.415 3018.2 981.832 3018.2 1175.14 2824.89L1175.14 2824.89 1640.91 2359.12 1646.22 2395.92C1668.88 2632.57 1589.59 2877.14 1408.36 3058.36 1267.41 3199.32 1088.14 3278.6 904.078 3296.22L825.002 3300 824.998 3300 745.922 3296.22C561.862 3278.6 382.592 3199.32 241.637 3058.36-80.5457 2736.18-80.5457 2213.82 241.637 1891.64 402.728 1730.55 613.864 1650 825 1650Z" fill-rule="evenodd"/><path d="M2475 3.05176e-05C2686.14 3.05176e-05 2897.27 80.5457 3058.36 241.637 3199.32 382.592 3278.6 561.862 3296.22 745.922L3299.54 815.361 3299.54 834.639 3296.22 904.078C3278.61 1088.14 3199.32 1267.41 3058.36 1408.36 2877.14 1589.59 2632.57 1668.88 2395.92 1646.22L2359.12 1640.91 2824.89 1175.14 2824.83 1175.08 2824.89 1175.02C3018.2 981.708 3018.2 668.292 2824.89 474.982 2631.58 281.673 2318.17 281.673 2124.86 474.982L2123.7 476.267 1659.09 940.878 1653.78 904.078C1631.12 667.43 1710.41 422.865 1891.64 241.637 2052.73 80.5457 2263.86 3.05176e-05 2475 3.05176e-05Z" fill-rule="evenodd"/><path d="M2116.23 949.505C2180.67 885.068 2285.14 885.068 2349.58 949.505 2414.01 1013.94 2414.01 1118.41 2349.58 1182.85 2285.14 1247.29 2180.67 1247.29 2116.23 1182.85 2051.79 1118.41 2051.79 1013.94 2116.23 949.505Z" fill-rule="evenodd"/><path d="M2116.23 949.505 2349.58 1182.85 1182.85 2349.58 949.505 2116.23Z" fill-rule="evenodd"/><path d="M949.505 2116.23C1013.94 2051.79 1118.41 2051.79 1182.85 2116.23 1247.29 2180.67 1247.29 2285.14 1182.85 2349.58 1118.41 2414.01 1013.94 2414.01 949.505 2349.58 885.069 2285.14 885.069 2180.67 949.505 2116.23Z" fill-rule="evenodd"/><path d="M832.832 1299.52 1066.18 1532.87 474.647 2124.4 1174.68 2824.43 1766.21 2232.9 1999.56 2466.25 1408.03 3057.78 241.301 1891.05ZM2824.43 1174.68 3057.78 1408.03 2466.25 1999.56 2232.9 1766.21ZM1891.05 241.301 2124.4 474.646 1532.87 1066.18 1299.52 832.831Z" fill-rule="evenodd"/><path d="M832.832 1299.52C897.268 1235.09 1001.74 1235.09 1066.18 1299.52 1130.61 1363.96 1130.61 1468.43 1066.18 1532.87 1001.74 1597.3 897.268 1597.3 832.832 1532.87 768.395 1468.43 768.395 1363.96 832.832 1299.52Z" fill-rule="evenodd"/><path d="M1299.52 832.831C1363.96 768.395 1468.43 768.395 1532.87 832.831 1597.3 897.268 1597.3 1001.74 1532.87 1066.18 1468.43 1130.61 1363.96 1130.61 1299.52 1066.18 1235.09 1001.74 1235.09 897.268 1299.52 832.831Z" fill-rule="evenodd"/><path d="M1766.21 2232.9C1830.65 2168.47 1935.12 2168.47 1999.56 2232.9 2064 2297.34 2064 2401.81 1999.56 2466.25 1935.12 2530.69 1830.65 2530.69 1766.21 2466.25 1701.78 2401.81 1701.78 2297.34 1766.21 2232.9Z" fill-rule="evenodd"/><path d="M2233.29 1765.82C2297.73 1701.39 2402.2 1701.39 2466.64 1765.82 2531.07 1830.26 2531.07 1934.73 2466.64 1999.17 2402.2 2063.61 2297.73 2063.61 2233.29 1999.17 2168.86 1934.73 2168.86 1830.26 2233.29 1765.82Z" fill-rule="evenodd"/></g></svg>