<svg width="3257" height="2331" xmlns="http://www.w3.org/2000/svg" xmlns:xlink="http://www.w3.org/1999/xlink" xml:space="preserve" overflow="hidden"><defs><clipPath id="clip0"><rect x="582" y="32" width="3257" height="2331"/></clipPath></defs><g clip-path="url(#clip0)" transform="translate(-582 -32)"><path d="M1946.77 221.758C1952.56 199.878 1975 186.837 1996.88 192.631L1996.88 192.631C2018.76 198.425 2031.8 220.86 2026 242.74L1943.37 554.793C1937.58 576.674 1915.14 589.714 1893.26 583.92L1893.26 583.92C1871.38 578.126 1858.34 555.691 1864.13 533.811Z" fill="#2E2E2E" fill-rule="evenodd"/><path d="M1841.64 794 3838.97 1067.26C3840.46 1069.27 3776.76 1619.14 3777.07 1618.46 3489.05 1734.53 3756.31 1860.44 3750.68 1879.98 3751.11 1880.69 3694.56 2367.94 3696.55 2362.96 3695.71 2362.57 1855.75 2148.3 1853.86 2152.16 1855.86 2151.29 1750.6 1923.48 1750 1923.41 1750.18 1922.61 1911.64 1734.91 1911.26 1734.53 1911.15 1734.46 1796.14 1524.09 1796.6 1522.4 1796.96 1524.58 1919.11 1414.23 1978.84 1359.26 1981.1 1360.98 1848.38 1154.37 1848.31 1154.56 1848.36 1153.15 2025.6 1011.34 2023.76 1010.28 2025.65 1012.77 1842.98 794.781 1841.64 794ZM2027.08 878.554C2026.73 879.372 3778.38 1121.17 3777.07 1123 3776.78 1122.81 3720.71 1573.79 3718.26 1573.53 3606.59 1664.19 3484.59 1708.94 3672.89 1911.03 3675.08 1910.49 3631.44 2297.41 3628.64 2294.36 3630.99 2296.6 2478.09 2167.42 1922.51 2095.74 1922.54 2096.86 1839.37 1926.03 1840.97 1925.57 1840.18 1924.97 1998.9 1735.46 1999.95 1733.8 2000.72 1736.14 1896.65 1531.87 1894.76 1530.89 1895.32 1531.15 2073.4 1357.24 2072.92 1354.66 2073.42 1357.38 1942.94 1161.86 1944.91 1163.29 1942.98 1162.65 2118.16 1021.18 2118.47 1019.57 2117.94 1020.57 2023.79 876.451 2027.08 878.554Z" fill="#2E2E2E" fill-rule="evenodd"/><path d="M1322.58 864C1323.55 865.183 1560.5 1024.97 1560.87 1023.38 1558.59 1024.83 1430.03 1208.01 1432.67 1207.35 1427.86 1208.23 1612.64 1371.01 1613.39 1370.17 1611.33 1371.36 1481.18 1580.48 1482.21 1578.91 1480.96 1580.56 1650.55 1748.06 1650.56 1747.98 1649.85 1749.16 1548.29 1977.27 1549.87 1976.15 1548.83 1976.9 1715.05 2166.5 1715 2167.87 1715.35 2166.49 790.572 2349.66 788.647 2353 787.442 2350.83 694.726 1906.09 695.758 1801.85 761.417 1704.92 854.285 1628.81 646.218 1516.99 612.751 1344.71 582.94 978.762 582 979.609 583.209 979.659 1323.66 865.096 1322.58 864ZM1296.44 934.874C1298.02 933.671 1470.43 1040.97 1469.83 1040.15 1471.04 1042.52 1336.93 1228.45 1336.81 1228.91 1337.04 1230.54 1519.52 1387.94 1519.37 1386.94 1474.99 1450.91 1394.73 1584.58 1395.52 1585.11 1395.52 1584.91 1576.71 1769.82 1575.57 1769.74 1577.75 1770.12 1464.55 1998.83 1463.64 2000.02 1465.5 1997.06 1578.54 2128.21 1579.26 2129.84 1578.4 2128.26 826.268 2272.25 825.802 2272.49 827.597 2271.56 780.594 1989.54 760.438 1855.07 923.06 1631.5 865.4 1583.86 708.143 1467.44 687.811 1323.07 669.233 1178.57 652.41 1033.96 869.535 1006.49 1296.24 934.498 1296.44 934.874Z" fill="#2E2E2E" fill-rule="evenodd"/><path d="M1635.07 76.474C1633.66 53.883 1650.84 34.432 1673.43 33.029L1673.43 33.029C1696.02 31.626 1715.47 48.8023 1716.88 71.3933L1736.88 393.581C1738.29 416.172 1721.11 435.623 1698.52 437.026L1698.52 437.026C1675.93 438.429 1656.48 421.252 1655.08 398.661Z" fill="#2E2E2E" fill-rule="evenodd"/><path d="M1387.22 283.12C1379.54 261.826 1390.58 238.343 1411.88 230.669L1411.88 230.669C1433.17 222.995 1456.65 234.036 1464.33 255.329L1573.78 559.018C1581.45 580.312 1570.41 603.795 1549.11 611.469L1549.11 611.469C1527.82 619.143 1504.34 608.102 1496.66 586.808Z" fill="#2E2E2E" fill-rule="evenodd"/><path d="M975.608 1348.27C953.305 1352.13 932.096 1337.18 928.235 1314.88L928.235 1314.88C924.374 1292.58 939.325 1271.37 961.628 1267.51L1166.3 1232.08C1188.6 1228.22 1209.81 1243.17 1213.67 1265.47L1213.67 1265.47C1217.53 1287.78 1202.58 1308.98 1180.28 1312.85Z" fill="#2E2E2E" fill-rule="evenodd"/><path d="M1016.8 1669.52C994.497 1673.38 973.287 1658.43 969.426 1636.13L969.426 1636.13C965.566 1613.82 980.516 1592.61 1002.82 1588.75L1207.49 1553.33C1229.79 1549.47 1251 1564.42 1254.86 1586.72L1254.86 1586.72C1258.72 1609.02 1243.77 1630.23 1221.47 1634.09Z" fill="#2E2E2E" fill-rule="evenodd"/><path d="M1063.45 1974.35C1041.15 1978.21 1019.94 1963.26 1016.08 1940.96L1016.08 1940.96C1012.22 1918.66 1027.17 1897.45 1049.47 1893.59L1254.15 1858.16C1276.45 1854.3 1297.66 1869.25 1301.52 1891.55L1301.52 1891.55C1305.38 1913.85 1290.43 1935.06 1268.13 1938.92Z" fill="#2E2E2E" fill-rule="evenodd"/><path d="M2624.62 1846.12C2602.13 1843.57 2585.97 1823.27 2588.52 1800.78L2588.52 1800.78C2591.07 1778.29 2611.37 1762.12 2633.86 1764.68L2964.89 1802.22C2987.38 1804.77 3003.55 1825.07 3001 1847.56L3001 1847.56C2998.45 1870.05 2978.15 1886.21 2955.66 1883.66Z" fill="#2E2E2E" fill-rule="evenodd"/><path d="M2465.68 2023.87C2443.19 2021.32 2427.03 2001.02 2429.58 1978.53L2429.58 1978.53C2432.13 1956.04 2452.43 1939.87 2474.92 1942.42L3100.32 2013.35C3122.81 2015.9 3138.98 2036.2 3136.43 2058.69L3136.43 2058.69C3133.88 2081.18 3113.58 2097.34 3091.09 2094.79Z" fill="#2E2E2E" fill-rule="evenodd"/><path d="M2624.46 1216.7C2629.54 1171.42 2670.36 1138.82 2715.64 1143.9L3043.58 1180.65C3088.86 1185.72 3121.46 1226.54 3116.38 1271.82L3079.63 1599.77C3074.56 1645.05 3033.74 1677.64 2988.46 1672.57L2660.51 1635.82C2615.23 1630.74 2582.64 1589.92 2587.71 1544.64Z" fill="#2E2E2E" fill-rule="evenodd"/><path d="M2822.09 1477.04C2814.55 1476.19 2809.11 1469.39 2809.96 1461.84L2836.3 1226.81C2837.14 1219.27 2843.95 1213.83 2851.49 1214.68L2906.15 1220.8C2913.7 1221.65 2919.13 1228.45 2918.28 1236L2891.95 1471.03C2891.1 1478.58 2884.3 1484.01 2876.75 1483.16Z" fill="#FE7F26" fill-rule="evenodd"/><path d="M2802.98 1524.15C2803.82 1516.6 2810.63 1511.17 2818.17 1512.01L2872.83 1518.14C2880.38 1518.98 2885.81 1525.79 2884.96 1533.33L2878.84 1587.99C2877.99 1595.54 2871.19 1600.97 2863.64 1600.12L2808.99 1594C2801.44 1593.15 2796.01 1586.35 2796.85 1578.8Z" fill="#FE7F26" fill-rule="evenodd"/></g></svg>