<svg width="3300" height="3300" xmlns="http://www.w3.org/2000/svg" xml:space="preserve" overflow="hidden"><g><path d="M1650 330C920.984 330 330 920.984 330 1650 330 2379.02 920.984 2970 1650 2970 2379.02 2970 2970 2379.02 2970 1650 2970 920.984 2379.02 330 1650 330ZM1650 0C2561.27 0 3300 738.73 3300 1650 3300 2561.27 2561.27 3300 1650 3300 738.73 3300 0 2561.27 0 1650 0 738.73 738.73 0 1650 0Z" fill-rule="evenodd"/><rect x="990" y="1485" width="1320" height="330"/><path d="M825 1650C825 1558.87 898.873 1485 990 1485 1081.13 1485 1155 1558.87 1155 1650 1155 1741.13 1081.13 1815 990 1815 898.873 1815 825 1741.13 825 1650Z" fill-rule="evenodd"/><path d="M2145 1650C2145 1558.87 2218.87 1485 2310 1485 2401.13 1485 2475 1558.87 2475 1650 2475 1741.13 2401.13 1815 2310 1815 2218.87 1815 2145 1741.13 2145 1650Z" fill-rule="evenodd"/></g></svg>