<svg width="1651" height="1654" xmlns="http://www.w3.org/2000/svg" xml:space="preserve" overflow="hidden"><defs><clipPath id="clip0"><rect x="-2" y="-4" width="1651" height="1654"/></clipPath></defs><g clip-path="url(#clip0)" transform="translate(2 4)"><path d="M111.746-3.27441 898.982-2.84991 579.172 716.498 444.03 508.397 419.828 538.451C362.319 619.32 328.503 718.211 328.503 825 328.503 1098.38 550.122 1320 823.503 1320 1096.88 1320 1318.5 1098.38 1318.5 825 1318.5 654.138 1231.93 503.493 1100.26 414.539L1082.9 403.991 1082.9 42.2397 1144.63 64.8329C1440.74 190.075 1648.5 483.274 1648.5 825.001 1648.5 1280.64 1279.14 1650 823.503 1650 367.868 1650-1.49713 1280.64-1.49695 825-1.49719 590.064 96.7057 378.064 254.302 227.809L259.068 223.58Z" fill-rule="evenodd"/></g></svg>