<svg width="3300" height="3300" xmlns="http://www.w3.org/2000/svg" xmlns:xlink="http://www.w3.org/1999/xlink" xml:space="preserve" overflow="hidden"><g><path d="M1650 330C920.984 330 330 920.984 330 1650 330 2379.02 920.984 2970 1650 2970 2379.02 2970 2970 2379.02 2970 1650 2970 920.984 2379.02 330 1650 330ZM1650 0C2561.27 0 3300 738.73 3300 1650 3300 2561.27 2561.27 3300 1650 3300 738.73 3300 0 2561.27 0 1650 0 738.73 738.73 0 1650 0Z" fill-rule="evenodd"/><path d="M1008.3 1417.94 1591.66 2001.3 1358.32 2234.64 774.955 1651.28Z" fill-rule="evenodd"/><path d="M774.955 1417.94C839.391 1353.5 943.864 1353.5 1008.3 1417.94 1072.74 1482.37 1072.74 1586.84 1008.3 1651.28 943.864 1715.72 839.391 1715.72 774.955 1651.28 710.518 1586.84 710.518 1482.37 774.955 1417.94Z" fill-rule="evenodd"/><path d="M1358.32 2001.3C1422.76 1936.86 1527.23 1936.86 1591.66 2001.3 1656.1 2065.74 1656.1 2170.21 1591.66 2234.65 1527.23 2299.08 1422.76 2299.08 1358.32 2234.65 1293.88 2170.21 1293.88 2065.74 1358.32 2001.3Z" fill-rule="evenodd"/><path d="M2525.04 1301.26 1591.66 2234.65 1358.32 2001.3 2291.7 1067.92Z" fill-rule="evenodd"/><path d="M2525.04 1067.92C2589.48 1132.36 2589.48 1236.83 2525.04 1301.26 2460.61 1365.7 2356.14 1365.7 2291.7 1301.26 2227.26 1236.83 2227.26 1132.36 2291.7 1067.92 2356.14 1003.48 2460.61 1003.48 2525.04 1067.92Z" fill-rule="evenodd"/><path d="M1591.66 2001.3C1656.1 2065.74 1656.1 2170.21 1591.66 2234.65 1527.23 2299.08 1422.76 2299.08 1358.32 2234.65 1293.88 2170.21 1293.88 2065.74 1358.32 2001.3 1422.76 1936.86 1527.23 1936.86 1591.66 2001.3Z" fill-rule="evenodd"/></g></svg>