<svg width="1650" height="1650" xmlns="http://www.w3.org/2000/svg" xmlns:xlink="http://www.w3.org/1999/xlink" xml:space="preserve" overflow="hidden"><g><path d="M825 528C660.971 528 528 660.971 528 825 528 989.029 660.971 1122 825 1122 989.028 1122 1122 989.029 1122 825 1122 660.971 989.028 528 825 528ZM660 0 990 0 1040.42 201.684 1050.41 205.339 1073.36 213.328 1077.55 215.274 1081.9 216.866 1103.81 227.461 1113.42 231.923 1291.69 124.964 1525.04 358.309 1418.12 536.501 1421.58 544.126 1436.67 576.642 1437.77 579.808 1439.22 582.995 1448.61 609.652 1650 660 1650 990 1448.4 1040.4 1445.52 1048.07 1433.13 1081.9 1431.67 1084.94 1430.44 1088.2 1418.23 1113.68 1525.03 1291.69 1291.69 1525.04 1113.5 1418.12 1105.9 1421.57 1073.36 1436.67 1070.19 1437.78 1067.01 1439.22 1040.35 1448.61 990 1650 660 1650 609.599 1448.4 601.805 1445.47 568.098 1433.13 565.077 1431.67 561.804 1430.44 536.316 1418.23 358.309 1525.04 124.963 1291.69 231.879 1113.5 228.497 1106.04 213.326 1073.36 212.219 1070.18 210.78 1067.01 201.392 1040.35 0 990 0 660 201.392 609.652 210.78 582.995 215.517 572.555 219.556 561.804 231.768 536.317 124.963 358.31 358.309 124.964 536.316 231.769 561.804 219.557 565.077 218.327 568.098 216.866 601.827 204.521 609.599 201.601Z" fill-rule="evenodd"/></g></svg>